<svg width="22" height="22" viewBox="0 0 22 22" fill="none" xmlns="http://www.w3.org/2000/svg">
<g clip-path="url(#clip0_19_15314)" filter="url(#filter0_dd_19_15314)">
<path d="M3.66675 6C3.66675 3.79086 5.45761 2 7.66675 2H14.3334C16.5426 2 18.3334 3.79086 18.3334 6V10.3333L15.3334 14.6667L11.0001 17.3333L6.66675 14.3333L3.66675 10.3333V6Z" fill="#DCFCE7"/>
<path fill-rule="evenodd" clip-rule="evenodd" d="M4.72224 2.02481C4.20765 2.12736 3.78139 2.48264 3.60056 2.95971C3.49741 3.23182 3.50557 2.95376 3.49971 6.40003C3.49419 9.65801 3.49675 9.8143 3.56185 10.1911C3.78169 11.4634 4.58281 12.8088 6.03558 14.3453C7.06457 15.4336 8.57553 16.6877 9.98211 17.6209C10.4577 17.9365 10.6002 17.9885 10.9921 17.9899C11.4059 17.9914 11.5353 17.9417 12.0961 17.5665C13.7323 16.4717 15.3437 15.0829 16.4498 13.8142C17.5843 12.5131 18.2453 11.3087 18.4384 10.1911C18.5035 9.8143 18.506 9.65801 18.5005 6.40003C18.4956 3.48139 18.4933 3.26507 18.4672 3.16803C18.3611 2.77377 18.1531 2.47137 17.8398 2.25585C17.7321 2.18169 17.5196 2.08475 17.3761 2.04419L17.2481 2.00803L11.0401 2.00547C5.84374 2.00332 4.81421 2.00648 4.72224 2.02481ZM4.83528 3.03108C4.69899 3.0798 4.58657 3.19136 4.53379 3.33025C4.50525 3.40537 4.50411 3.52854 4.50411 6.54121C4.50411 9.18861 4.50771 9.70118 4.52734 9.84905C4.56854 10.1594 4.62646 10.389 4.7471 10.72C4.8348 10.9607 5.13293 11.5507 5.30533 11.8249C6.12973 13.136 7.58907 14.6102 9.44811 16.0099C10.0596 16.4704 10.7239 16.927 10.8436 16.9693C10.9263 16.9984 11.074 16.9984 11.1567 16.9692C11.2692 16.9296 11.8615 16.5249 12.4561 16.0815C13.9143 14.9942 15.1753 13.8169 16.0483 12.728C16.7764 11.8197 17.2632 10.9048 17.4249 10.1409C17.4971 9.79992 17.4961 9.84947 17.4961 6.54165C17.4961 3.44422 17.4958 3.40827 17.464 3.32336C17.4266 3.22347 17.3216 3.10652 17.2212 3.05294L17.1521 3.01603L11.0241 3.01268C5.89414 3.00988 4.88621 3.01289 4.83528 3.03108ZM15.3415 4.63004C15.2698 4.6535 15.1853 4.70776 15.1397 4.75968C15.124 4.77747 13.9234 6.29457 12.4715 8.131C10.9767 10.0218 9.81728 11.4746 9.7983 11.4806C9.7475 11.4967 9.66392 11.4933 9.62713 11.4736C9.57537 11.4459 9.53157 11.3859 8.68936 10.1879C8.25161 9.56528 7.87069 9.03307 7.84288 9.00526C7.70573 8.86811 7.46248 8.82961 7.28469 8.91692C7.05384 9.03028 6.94278 9.30424 7.03232 9.53942C7.06814 9.63353 8.68539 11.9435 8.82686 12.1026C9.27589 12.6076 10.0739 12.6305 10.5562 12.1522C10.6772 12.0321 15.9088 5.40133 15.9549 5.30945C16.005 5.20981 16.0105 5.05568 15.9686 4.92947C15.9365 4.83284 15.8225 4.70707 15.7201 4.65518C15.6311 4.61013 15.4411 4.5975 15.3415 4.63004Z" fill="#22C55E"/>
</g>
<defs>
<filter id="filter0_dd_19_15314" x="0" y="0" width="22" height="22" filterUnits="userSpaceOnUse" color-interpolation-filters="sRGB">
<feFlood flood-opacity="0" result="BackgroundImageFix"/>
<feColorMatrix in="SourceAlpha" type="matrix" values="0 0 0 0 0 0 0 0 0 0 0 0 0 0 0 0 0 0 127 0" result="hardAlpha"/>
<feOffset dy="1"/>
<feGaussianBlur stdDeviation="1"/>
<feColorMatrix type="matrix" values="0 0 0 0 0.0627451 0 0 0 0 0.0941176 0 0 0 0 0.156863 0 0 0 0.06 0"/>
<feBlend mode="normal" in2="BackgroundImageFix" result="effect1_dropShadow_19_15314"/>
<feColorMatrix in="SourceAlpha" type="matrix" values="0 0 0 0 0 0 0 0 0 0 0 0 0 0 0 0 0 0 127 0" result="hardAlpha"/>
<feOffset dy="1"/>
<feGaussianBlur stdDeviation="1.5"/>
<feColorMatrix type="matrix" values="0 0 0 0 0.0627451 0 0 0 0 0.0941176 0 0 0 0 0.156863 0 0 0 0.1 0"/>
<feBlend mode="normal" in2="effect1_dropShadow_19_15314" result="effect2_dropShadow_19_15314"/>
<feBlend mode="normal" in="SourceGraphic" in2="effect2_dropShadow_19_15314" result="shape"/>
</filter>
<clipPath id="clip0_19_15314">
<rect width="16" height="16" fill="white" transform="translate(3 2)"/>
</clipPath>
</defs>
</svg>
