<svg width="25" height="24" viewBox="0 0 25 24" fill="none" xmlns="http://www.w3.org/2000/svg">
<g clip-path="url(#clip0_202_61)">
<path fill-rule="evenodd" clip-rule="evenodd" d="M12.2519 3.03599C12.0766 3.10251 11.9101 3.25295 11.8134 3.43201C11.7693 3.51356 11.7678 3.66834 11.7618 8.72339L11.7555 13.9308L10.1058 12.2826C8.2522 10.4308 8.34222 10.5067 7.99998 10.5067C7.58082 10.5067 7.26011 10.825 7.25716 11.244C7.25478 11.5835 7.0808 11.3866 9.71173 14.0211C12.3411 16.6541 12.1644 16.4972 12.5 16.4972C12.8355 16.4972 12.6588 16.6541 15.2882 14.0211C17.9283 11.3775 17.7451 11.5857 17.7428 11.232C17.7419 11.0907 17.7291 11.0269 17.683 10.9349C17.5455 10.6604 17.3004 10.5067 17 10.5067C16.6581 10.5067 16.7477 10.4311 14.8942 12.2825L13.2444 13.9305L13.2382 8.72322L13.232 3.51601L13.1799 3.41879C13.1085 3.28537 12.9518 3.134 12.8167 3.06788C12.6765 2.99929 12.391 2.98316 12.2519 3.03599ZM0.95598 15.0617C0.792756 15.1373 0.659652 15.2628 0.575916 15.42L0.51198 15.54L0.504204 16.464C0.495828 17.4628 0.513876 17.7506 0.609732 18.1466C0.889788 19.3031 1.74719 20.2889 2.8576 20.7312C3.14005 20.8437 3.50927 20.9381 3.81136 20.9751C4.09434 21.0098 20.9056 21.0098 21.1886 20.9751C22.4697 20.8183 23.5473 20.0498 24.1362 18.8728C24.256 18.6333 24.4017 18.163 24.4421 17.8854C24.4626 17.7438 24.4895 17.5948 24.5017 17.5543C24.5328 17.4513 24.5311 15.5688 24.5 15.588C24.4868 15.5962 24.476 15.5831 24.476 15.5591C24.476 15.4897 24.3838 15.3328 24.28 15.2255C24.1415 15.0821 23.9934 15.0151 23.792 15.0046C23.4745 14.9879 23.2033 15.1542 23.0643 15.4507L23 15.588L22.9864 16.62L22.9728 17.652L22.9082 17.8629C22.785 18.2656 22.5879 18.5908 22.3007 18.8655C22.0278 19.1264 21.7472 19.2893 21.3629 19.4098L21.152 19.476H12.5H3.84798L3.63707 19.4098C2.86446 19.1675 2.32552 18.628 2.09195 17.8631C2.02763 17.6525 2.02744 17.6497 2.01131 16.62C2.0024 16.0524 1.98625 15.561 1.97538 15.528C1.93804 15.4145 1.81664 15.2414 1.72168 15.1662C1.50148 14.9918 1.19656 14.9502 0.95598 15.0617ZM0.510948 16.572C0.510924 17.1132 0.514092 17.338 0.517956 17.0716C0.521796 16.8052 0.52182 16.3624 0.517956 16.0876C0.514116 15.8128 0.510948 16.0308 0.510948 16.572Z" fill="white"/>
</g>
<defs>
<clipPath id="clip0_202_61">
<rect width="24" height="24" fill="white" transform="translate(0.5)"/>
</clipPath>
</defs>
</svg>
